<svg width="24" height="25" viewBox="0 0 24 25" fill="none" xmlns="http://www.w3.org/2000/svg">
<g clip-path="url(#clip0_148_37526)">
<path d="M11.99 2.85441C15.194 2.85441 15.574 2.86641 16.84 2.92441C20.092 3.07241 21.611 4.61541 21.759 7.84341C21.817 9.10841 21.828 9.48841 21.828 12.6924C21.828 15.8974 21.816 16.2764 21.759 17.5414C21.61 20.7664 20.095 22.3124 16.84 22.4604C15.574 22.5184 15.196 22.5304 11.99 22.5304C8.78599 22.5304 8.40599 22.5184 7.14099 22.4604C3.88099 22.3114 2.36999 20.7614 2.22199 17.5404C2.16399 16.2754 2.15199 15.8964 2.15199 12.6914C2.15199 9.48741 2.16499 9.10841 2.22199 7.84241C2.37099 4.61541 3.88599 3.07141 7.14099 2.92341C8.40699 2.86641 8.78599 2.85441 11.99 2.85441ZM11.99 0.691406C8.73099 0.691406 8.32299 0.705406 7.04299 0.763406C2.68499 0.963406 0.26299 3.38141 0.0629902 7.74341C0.00399023 9.02441 -0.0100098 9.43241 -0.0100098 12.6914C-0.0100098 15.9504 0.00399023 16.3594 0.0619902 17.6394C0.26199 21.9974 2.67999 24.4194 7.04199 24.6194C8.32299 24.6774 8.73099 24.6914 11.99 24.6914C15.249 24.6914 15.658 24.6774 16.938 24.6194C21.292 24.4194 23.72 22.0014 23.917 17.6394C23.976 16.3594 23.99 15.9504 23.99 12.6914C23.99 9.43241 23.976 9.02441 23.918 7.74441C23.722 3.39041 21.301 0.964406 16.939 0.764406C15.658 0.705406 15.249 0.691406 11.99 0.691406ZM11.99 6.52941C8.58699 6.52941 5.82799 9.28841 5.82799 12.6914C5.82799 16.0944 8.58699 18.8544 11.99 18.8544C15.393 18.8544 18.152 16.0954 18.152 12.6914C18.152 9.28841 15.393 6.52941 11.99 6.52941ZM11.99 16.6914C9.78099 16.6914 7.98999 14.9014 7.98999 12.6914C7.98999 10.4824 9.78099 8.69141 11.99 8.69141C14.199 8.69141 15.99 10.4824 15.99 12.6914C15.99 14.9014 14.199 16.6914 11.99 16.6914ZM18.396 4.84641C17.6 4.84641 16.955 5.49141 16.955 6.28641C16.955 7.08141 17.6 7.72641 18.396 7.72641C19.191 7.72641 19.835 7.08141 19.835 6.28641C19.835 5.49141 19.191 4.84641 18.396 4.84641Z" fill="#B8C4C1"/>
</g>
<defs>
<clipPath id="clip0_148_37526">
<rect width="24" height="24" fill="white" transform="translate(-0.0100098 0.691406)"/>
</clipPath>
</defs>
</svg>
