<svg width="24" height="25" viewBox="0 0 24 25" fill="none" xmlns="http://www.w3.org/2000/svg">
<g clip-path="url(#clip0_148_37528)">
<path d="M18.99 0.691406H4.98999C2.22899 0.691406 -0.0100098 2.93041 -0.0100098 5.69141V19.6914C-0.0100098 22.4524 2.22899 24.6914 4.98999 24.6914H18.99C21.752 24.6914 23.99 22.4524 23.99 19.6914V5.69141C23.99 2.93041 21.752 0.691406 18.99 0.691406ZM7.98999 19.6914H4.98999V8.69141H7.98999V19.6914ZM6.48999 7.42341C5.52399 7.42341 4.73999 6.63341 4.73999 5.65941C4.73999 4.68541 5.52399 3.89541 6.48999 3.89541C7.45599 3.89541 8.23999 4.68541 8.23999 5.65941C8.23999 6.63341 7.45699 7.42341 6.48999 7.42341ZM19.99 19.6914H16.99V14.0874C16.99 10.7194 12.99 10.9744 12.99 14.0874V19.6914H9.98999V8.69141H12.99V10.4564C14.386 7.87041 19.99 7.67941 19.99 12.9324V19.6914Z" fill="#B8C4C1"/>
</g>
<defs>
<clipPath id="clip0_148_37528">
<rect width="24" height="24" fill="white" transform="translate(-0.0100098 0.691406)"/>
</clipPath>
</defs>
</svg>
