<svg width="185" height="28" viewBox="0 0 185 28" fill="none" xmlns="http://www.w3.org/2000/svg">
<path d="M40.8969 22.4239C40.9945 22.2834 41.0871 22.1279 41.1697 21.9598C41.2548 21.7918 41.3374 21.6086 41.4225 21.413V8.48887C41.2673 8.12262 41.0921 7.78647 40.8969 7.47792H44.0306C43.933 7.63345 43.8379 7.794 43.7453 7.96208C43.6552 8.13015 43.5676 8.3208 43.4825 8.53152V14.1381L51.0967 14.1582V8.52901C51.0115 8.31829 50.9239 8.12764 50.8338 7.95956C50.7412 7.79149 50.6486 7.62844 50.5485 7.47541H53.6823C53.5847 7.61589 53.492 7.77142 53.4094 7.9395C53.3243 8.10757 53.2417 8.29069 53.1566 8.48887V21.413C53.3118 21.7792 53.4871 22.1154 53.6823 22.4239H50.5485C50.6461 22.2684 50.7412 22.1078 50.8338 21.9398C50.9239 21.7717 51.0115 21.581 51.0967 21.3703V14.9409L43.4825 14.9208V21.3728C43.5676 21.5835 43.6552 21.7742 43.7453 21.9423C43.8354 22.1103 43.9305 22.2734 44.0306 22.4264H40.8969V22.4239Z" fill="#1F2C2F"/>
<path d="M59.5068 14.9425C59.5068 13.6907 59.7195 12.5845 60.1476 11.6212C60.5756 10.6579 61.1388 9.84763 61.8421 9.18537C62.543 8.52562 63.3439 8.02391 64.24 7.67773C65.1361 7.33405 66.0572 7.16096 66.9958 7.16096C67.9345 7.16096 68.8531 7.33405 69.7517 7.67773C70.6503 8.0214 71.4487 8.52562 72.1495 9.18537C72.8504 9.84512 73.4161 10.6579 73.8441 11.6212C74.2721 12.5845 74.4849 13.6907 74.4849 14.9425C74.4849 16.1943 74.2721 17.3031 73.8441 18.2739C73.4161 19.2447 72.8529 20.06 72.1495 20.7197C71.4487 21.3795 70.6478 21.8837 69.7517 22.2274C68.8531 22.571 67.9345 22.7441 66.9958 22.7441C66.0572 22.7441 65.1386 22.571 64.24 22.2274C63.3414 21.8837 62.543 21.382 61.8421 20.7197C61.1413 20.06 60.5756 19.2447 60.1476 18.2739C59.7195 17.3031 59.5068 16.1943 59.5068 14.9425ZM62.115 17.2178C62.4929 18.0331 62.9185 18.7329 63.3865 19.3149C63.8571 19.8994 64.3426 20.3735 64.8482 20.7373C65.3538 21.1035 65.872 21.3694 66.4051 21.5375C66.9383 21.7056 67.4639 21.7909 67.982 21.7909C68.7404 21.7909 69.4613 21.6303 70.1496 21.3067C70.7804 21.0107 71.3235 20.6043 71.7791 20.0851C72.2346 19.5658 72.5576 18.9437 72.7478 18.2187C72.938 17.4962 72.973 16.6659 72.8529 15.7302C72.7327 14.7945 72.4074 13.766 71.8742 12.6422C71.4963 11.8269 71.0758 11.132 70.6127 10.555C70.1496 9.97807 69.6665 9.50897 69.1609 9.14272C68.6553 8.77648 68.1372 8.51057 67.6041 8.34249C67.0709 8.17442 66.5453 8.08913 66.0272 8.08913C65.6492 8.08913 65.2737 8.13428 64.9008 8.2271C64.5278 8.31992 64.1749 8.44033 63.8395 8.59586C63.2088 8.89187 62.6656 9.29575 62.21 9.80749C61.7545 10.3217 61.4316 10.9414 61.2414 11.6739C61.0512 12.4039 61.0211 13.2317 61.1463 14.1523C61.2714 15.073 61.5943 16.0964 62.115 17.2203V17.2178Z" fill="#1F2C2F"/>
<path d="M81.7536 10.2816V21.096C81.8663 21.377 81.9814 21.6278 82.1015 21.8436C82.2217 22.0618 82.3493 22.255 82.492 22.4231H80.0516C80.3469 22.0869 80.5922 21.6354 80.7874 21.0735V9.26817L79.0428 7.45449L81.631 7.47455L92.5266 18.585V8.80158C92.3289 8.23967 92.0861 7.78812 91.7908 7.45198H94.2312C94.091 7.62005 93.9584 7.81823 93.8307 8.04149C93.7056 8.26726 93.5854 8.53317 93.4728 8.84172V22.418L81.7561 10.2741L81.7536 10.2816Z" fill="#1F2C2F"/>
<path d="M99.8179 14.9425C99.8179 13.6907 100.031 12.5845 100.459 11.6212C100.887 10.6579 101.45 9.84763 102.153 9.18537C102.854 8.52562 103.655 8.02391 104.551 7.67773C105.447 7.33405 106.368 7.16096 107.307 7.16096C108.246 7.16096 109.164 7.33405 110.063 7.67773C110.961 8.0214 111.76 8.52562 112.461 9.18537C113.161 9.84512 113.727 10.6579 114.155 11.6212C114.583 12.5845 114.796 13.6907 114.796 14.9425C114.796 16.1943 114.583 17.3031 114.155 18.2739C113.727 19.2447 113.164 20.06 112.461 20.7197C111.76 21.3795 110.959 21.8837 110.063 22.2274C109.164 22.571 108.246 22.7441 107.307 22.7441C106.368 22.7441 105.45 22.571 104.551 22.2274C103.653 21.8837 102.854 21.382 102.153 20.7197C101.452 20.06 100.887 19.2447 100.459 18.2739C100.031 17.3031 99.8179 16.1943 99.8179 14.9425ZM102.426 17.2178C102.804 18.0331 103.229 18.7329 103.698 19.3149C104.168 19.8994 104.654 20.3735 105.159 20.7373C105.665 21.1035 106.183 21.3694 106.716 21.5375C107.249 21.7056 107.775 21.7909 108.293 21.7909C109.052 21.7909 109.772 21.6303 110.461 21.3067C111.091 21.0107 111.635 20.6043 112.09 20.0851C112.546 19.5658 112.869 18.9437 113.059 18.2187C113.249 17.4962 113.284 16.6659 113.164 15.7302C113.044 14.7945 112.718 13.766 112.185 12.6422C111.807 11.8269 111.387 11.132 110.924 10.555C110.461 9.97807 109.978 9.50897 109.472 9.14272C108.966 8.77648 108.448 8.51057 107.915 8.34249C107.382 8.17442 106.856 8.08913 106.338 8.08913C105.96 8.08913 105.585 8.13428 105.212 8.2271C104.839 8.31992 104.486 8.44033 104.151 8.59586C103.52 8.89187 102.977 9.29575 102.521 9.80749C102.066 10.3217 101.743 10.9414 101.553 11.6739C101.362 12.4039 101.332 13.2317 101.457 14.1523C101.583 15.073 101.905 16.0964 102.426 17.2203V17.2178Z" fill="#1F2C2F"/>
<path d="M120.613 22.4253C120.711 22.2848 120.803 22.1293 120.886 21.9612C120.971 21.7932 121.054 21.61 121.139 21.4144V8.49027C120.984 8.12402 120.808 7.78787 120.613 7.47932H126.755C127.456 7.47932 128.092 7.59471 128.66 7.82801C129.228 8.0588 129.709 8.37488 130.102 8.77624C130.495 9.17761 130.795 9.64922 131.006 10.1886C131.216 10.7304 131.321 11.3099 131.321 11.927C131.321 13.2064 130.955 14.2273 130.227 14.995C129.499 15.7601 128.417 16.2216 126.988 16.3747L132.037 22.4253H127.957C128.097 22.3124 128.222 22.1619 128.335 21.9713C128.448 21.7806 128.53 21.5473 128.588 21.2638L124.718 16.4349H123.204V21.3692C123.289 21.5799 123.376 21.7706 123.466 21.9387C123.557 22.1067 123.652 22.2698 123.752 22.4228H120.618L120.613 22.4253ZM123.201 15.7425H126.125C126.53 15.7425 126.921 15.6547 127.291 15.4791C127.662 15.3035 127.989 15.0552 128.27 14.7316C128.55 14.408 128.775 14.0091 128.943 13.53C129.111 13.0533 129.196 12.519 129.196 11.927C129.196 10.605 128.936 9.66428 128.417 9.10236C127.899 8.54044 127.219 8.25948 126.377 8.25948H123.326L123.201 8.53291V15.7425Z" fill="#1F2C2F"/>
<path d="M138.81 22.4245V7.66668H145.984C146.84 7.66668 147.588 7.8498 148.234 8.21354C148.88 8.57979 149.383 9.079 149.748 9.71115C150.114 10.3433 150.296 11.0808 150.296 11.9262C150.296 12.8393 150.111 13.6471 149.738 14.3495C149.365 15.0519 148.852 15.6012 148.191 15.9951C147.533 16.3889 146.767 16.5846 145.899 16.5846H139.861V22.4245H138.81ZM139.861 15.531H145.941C146.587 15.531 147.153 15.3755 147.646 15.0669C148.136 14.7584 148.509 14.3294 148.762 13.78C149.015 13.2332 149.14 12.5985 149.14 11.8836C149.14 11.2514 149.015 10.6995 148.762 10.2279C148.509 9.75631 148.141 9.38755 147.658 9.12164C147.175 8.85573 146.602 8.72027 145.944 8.72027H139.864V15.531H139.861Z" fill="#1F2C2F"/>
<path d="M156.794 22.4245V7.66668H167.227V8.72027H157.845V21.3684H167.144V22.422H156.794V22.4245ZM157.322 15.3404V14.2868H166.03V15.3404H157.322Z" fill="#1F2C2F"/>
<path d="M178.187 22.4245V8.72027H172.949V7.66668H184.645V8.72027H179.239V22.4245H178.187Z" fill="#1F2C2F"/>
<path d="M22.0165 27.2827H21.2106V13.9999C21.2106 9.82569 17.824 6.43161 13.6589 6.43161C9.49392 6.43161 6.10736 9.82569 6.10736 13.9999V27.2827H5.30139V13.9999C5.30139 9.38167 9.05089 5.62385 13.6589 5.62385C18.267 5.62385 22.0165 9.38167 22.0165 13.9999V27.2827Z" fill="#1F2C2F"/>
<path d="M27.3205 27.6867H0V14C0 6.45175 6.12737 0.313305 13.6565 0.313305C21.1855 0.313305 27.318 6.45426 27.318 14V27.6867H27.3205ZM0.805965 26.8815H26.5145V14C26.5145 6.89827 20.75 1.11855 13.6615 1.11855C6.57292 1.11855 0.805965 6.89576 0.805965 14V26.8815Z" fill="#1F2C2F"/>
<path d="M16.7152 27.2835H15.9092V14.0007C15.9092 12.759 14.9005 11.748 13.6615 11.748C12.4225 11.748 11.4138 12.759 11.4138 14.0007V27.2835H10.6078V14.0007C10.6078 12.3124 11.9769 10.9403 13.6615 10.9403C15.346 10.9403 16.7152 12.3124 16.7152 14.0007V27.2835Z" fill="#1F2C2F"/>
</svg>
