<svg width="328" height="199" viewBox="0 0 328 199" fill="none" xmlns="http://www.w3.org/2000/svg">
<g opacity="0.2">
<g clip-path="url(#clip0_148_34399)">
<path d="M159.458 118.838C159.26 120.714 160.05 122.491 160.741 124.17C168.245 141.943 144.054 150.73 134.279 184.894C132.008 192.892 135.76 199.013 127.071 203.555C110.78 212.047 68.2236 235.744 18.4596 228.24C10.3631 227.055 2.6615 224.685 -5.13881 222.414C-6.22493 222.118 -7.40982 221.822 -8.29846 222.414C-9.48332 223.204 -9.28581 224.883 -9.38455 226.265C-9.68077 230.215 -12.6429 233.374 -13.9265 237.126C-14.124 237.62 -14.2228 238.114 -14.124 238.607C-13.8278 239.496 -12.7417 239.891 -11.853 240.187C-1.58424 242.754 9.27693 244.63 19.8419 245.618C44.7239 248.086 70.2971 246.013 94.2904 238.706C124.702 229.425 129.639 220.933 139.907 214.416C151.065 207.307 174.959 212.442 190.56 191.312C198.854 180.056 193.325 165.936 218.898 164.652C228.772 164.159 216.528 148.163 198.163 151.915C204.68 142.535 214.553 135.821 197.274 135.525C195.102 135.525 179.699 138.092 179.798 141.054C179.6 129.798 172.886 121.405 162.518 117.456C161.63 117.159 160.642 116.863 159.951 117.554C159.655 117.851 159.556 118.344 159.556 118.739L159.458 118.838Z" fill="#B8C4C1"/>
<path d="M197.768 136.018C197.768 136.018 198.657 136.018 199.15 136.117C198.262 132.76 198.459 128.514 199.743 124.96C203.495 107.483 201.52 96.7207 191.547 82.1075C181.377 67.198 173.182 55.0532 153.632 51.7949C143.857 50.2151 130.527 49.1289 120.95 52.881C106.238 58.5091 111.471 66.3094 108.607 78.2567C97.845 122.689 115.914 121.701 161.432 129.304C175.552 129.699 189.079 132.859 197.669 136.117L197.768 136.018ZM114.828 97.4119C117.099 94.8447 120.357 93.956 123.418 92.475C128.553 90.0065 131.811 98.6955 126.479 100.868C116.013 105.212 112.458 100.078 114.828 97.4119ZM114.729 106.397C125.59 108.471 132.107 103.731 137.933 100.966C141.191 99.3866 144.548 104.422 141.882 106.891C138.031 110.445 132.996 112.914 127.664 113.111C114.137 113.704 108.904 105.311 114.729 106.397ZM124.998 119.43C123.813 118.048 124.998 116.073 126.676 116.172C136.452 116.37 146.325 115.283 155.706 112.519C159.951 111.334 162.913 117.949 158.766 119.727C150.67 123.281 130.33 125.552 124.998 119.332L124.998 119.43ZM164.592 120.813C167.554 120.517 172.688 117.851 175.058 116.172C176.934 114.888 179.896 116.172 180.291 118.344C181.97 126.54 167.06 129.403 163.111 123.676C162.321 122.491 163.111 121.01 164.592 120.912L164.592 120.813Z" fill="#F5F2EB"/>
<path d="M231.635 159.024C230.055 158.728 228.377 158.333 226.6 157.84C224.427 157.346 222.156 157.148 219.885 156.951C219.885 157.247 219.885 157.543 219.787 157.84C219.787 158.234 219.787 158.728 219.787 159.123C219.787 159.419 219.589 159.518 219.49 159.814C217.812 168.701 214.356 173.341 218.207 211.257C221.366 241.174 242.595 265.958 273.006 268.031C273.698 268.031 274.389 268.031 274.981 268.031C275.376 268.031 275.771 267.834 276.067 267.538C279.029 265.267 283.374 256.38 285.447 252.924C325.14 188.547 264.712 175.119 231.635 159.024ZM226.303 180.253C229.364 178.673 233.412 181.438 230.648 185.881C218.404 205.629 214.06 186.474 226.303 180.253ZM230.845 196.051C234.202 198.618 232.425 201.975 231.635 205.629C230.648 210.072 231.931 213.429 228.179 216.589C218.997 224.389 225.02 191.509 230.845 196.051ZM230.845 238.509C230.845 238.509 229.463 235.546 229.364 234.757C228.871 228.437 234.301 209.578 240.719 211.158C246.94 212.738 242.2 218.86 239.633 225.179C239.041 226.561 234.4 239.693 233.116 240.088C231.339 240.681 230.549 239.693 230.747 238.607L230.845 238.509ZM245.36 253.122C241.706 247 243.78 227.351 246.94 228.339C255.727 231.103 248.717 243.248 251.876 249.468C253.851 253.221 247.532 256.775 245.36 253.122ZM260.269 259.046C258.591 254.899 257.406 243.939 262.047 246.309C266.49 248.58 265.897 252.036 267.28 256.183C268.761 260.725 262.145 263.588 260.269 259.046Z" fill="#F5F2EB"/>
<path d="M160.445 46.3643C162.913 47.0555 165.283 48.0429 167.554 49.129C167.554 44.4883 166.369 40.1438 170.615 36.688C173.083 34.7132 176.046 51.4987 175.354 53.3747C177.033 54.4609 178.712 55.3495 180.291 56.6331C178.613 48.8328 175.552 40.6375 181.772 33.7259C182.365 33.0347 183.648 32.8372 184.34 33.5284C188.98 38.0703 185.623 39.8476 186.216 45.6732C186.314 46.9568 189.573 63.446 192.041 69.2716C188.882 53.4735 193.127 56.0407 194.51 41.5262C194.905 37.2804 201.323 36.1943 202.31 40.7363C203.692 47.253 199.15 54.1646 199.15 60.7801C199.15 65.8157 200.335 70.6539 201.323 75.4921C208.135 46.2656 226.402 39.4527 215.343 82.2063C217.812 79.0466 220.774 76.5782 221.169 76.3807C222.156 73.616 226.994 75.1959 225.612 78.7504C221.761 88.5255 218.306 98.3006 215.146 108.273C215.738 108.569 215.738 109.162 215.837 109.952C221.07 98.3006 239.435 81.1201 258.196 76.8744C258.196 76.282 258.097 75.6895 258.294 75.0971C256.221 30.27 189.573 -9.81764 173.676 15.7555C168.245 24.4445 159.161 35.7006 160.248 46.4631L160.445 46.3643Z" fill="#F5F2EB"/>
<path d="M210.999 155.568C210.999 155.568 210.9 155.568 210.801 155.568C205.47 154.087 199.447 149.052 201.421 143.621C198.163 143.226 194.707 142.93 191.547 141.943C191.054 141.745 190.56 141.548 190.066 141.35C186.512 140.659 182.562 139.869 177.625 138.783C128.454 129.008 87.8725 165.047 117.198 195.36C119.074 197.335 121.937 198.223 123.616 200.099C133.983 211.652 125.097 229.523 151.657 234.658C180.489 240.187 199.743 209.578 208.53 199.902C206.951 191.509 206.457 167.614 210.801 155.667L210.999 155.568ZM125.887 191.805C119.666 183.709 136.353 158.432 142.672 160.012C143.956 160.308 145.141 162.184 144.548 163.467C140.5 172.453 130.725 180.253 129.441 190.522C129.244 192.101 127.072 193.188 125.887 191.707L125.887 191.805ZM137.242 188.448C141.191 183.314 149.386 172.156 152.348 178.377C153.435 180.648 154.126 182.129 151.46 184.499C145.832 189.436 142.475 196.051 137.735 201.877C135.267 204.937 130.33 197.73 137.34 188.547L137.242 188.448ZM138.525 216.095C136.649 216.391 135.563 214.614 136.353 213.034C138.624 208.295 143.166 205.925 146.523 202.074C162.815 184.005 157.68 212.836 138.525 216.095ZM159.556 220.439C149.584 225.08 138.624 221.92 144.351 219.551C148.794 217.773 153.928 215.404 158.075 212.935C162.025 210.566 165.086 206.517 169.924 207.998C172.787 208.887 172.392 214.416 159.556 220.439ZM161.827 230.708C151.361 231.103 171.899 218.86 179.304 213.626C181.772 211.849 187.006 204.74 190.659 206.912C199.94 212.442 172.787 230.214 161.827 230.609L161.827 230.708Z" fill="#F5F2EB"/>
<path d="M220.28 114.79C230.648 97.9055 245.261 98.1029 242.595 104.027C241.311 106.989 239.732 108.273 237.066 109.952C230.944 114 228.574 118.246 224.625 124.269C241.015 107.582 258.492 108.569 251.778 116.271C249.013 119.43 240.225 123.281 235.486 126.836C267.181 112.617 290.681 116.172 249.309 129.995C243.582 131.97 238.053 134.439 232.721 137.203C240.719 136.808 282.288 130.588 287.718 129.502C289.002 129.205 289.792 130.785 288.903 131.674C279.819 140.857 262.046 141.844 243.385 145.3C263.824 146.485 281.103 147.373 299.764 139.375C302.233 138.289 304.603 140.955 303.714 143.325C298.876 156.457 264.811 155.174 250.79 154.581C266.983 159.321 281.399 161.197 298.58 156.161C303.023 154.877 304.899 161.69 300.456 163.073C285.744 167.713 274.685 167.417 260.368 164.652C288.311 175.02 320.993 162.579 333.138 136.117C335.014 132.069 336.396 127.724 337.186 123.084C337.384 121.899 337.581 120.714 337.384 119.628C337.087 117.752 335.705 116.271 334.323 114.888C318.525 98.8928 296.111 82.2061 272.71 81.8111C250.297 81.4162 231.339 93.7585 220.478 113.111C220.478 113.605 220.28 114.099 220.28 114.493L220.28 114.79ZM317.241 145.695C319.216 145.102 320.796 147.867 319.611 149.348C310.132 161.888 301.344 150.533 317.241 145.695Z" fill="#F5F2EB"/>
<path d="M296.605 246.704C308.75 217.872 307.071 189.633 277.746 174.131C300.159 176.007 318.228 170.182 330.077 151.125C334.718 143.621 343.9 126.144 341.629 116.863C338.371 103.632 301.838 72.5297 265.897 75.4919C264.515 25.2342 185.426 -20.5803 168.048 11.1146C162.617 20.9884 151.46 34.1206 155.113 45.278C142.573 43.007 109.792 43.5007 103.671 54.5594C100.116 60.8786 102.486 73.6158 101.005 79.2439C99.1286 86.3531 96.6601 89.7102 97.1538 97.1155C98.8324 122.491 114.63 129.897 137.636 132.266C118.777 138.092 97.9437 156.358 99.4248 176.106C100.807 193.583 117.593 201.185 123.122 216.885C135.267 251.542 177.23 252.727 209.616 205.135C212.48 219.847 207.148 243.84 241.114 264.773C252.37 271.684 265.404 270.5 277.647 274.35C279.819 275.042 282.09 273.857 282.386 271.487C283.473 262.995 293.346 254.701 296.703 246.704L296.605 246.704ZM272.71 82.0086C296.012 82.4035 318.525 98.9915 334.323 115.086C335.705 116.468 336.989 117.949 337.384 119.825C337.581 121.01 337.384 122.096 337.186 123.281C336.396 127.922 335.014 132.266 333.138 136.315C320.993 162.776 288.311 175.217 260.368 164.85C274.685 167.516 285.744 167.812 300.456 163.27C304.899 161.888 303.023 155.075 298.58 156.358C281.399 161.394 266.983 159.518 250.79 154.779C264.811 155.272 298.876 156.556 303.714 143.522C304.603 141.153 302.233 138.487 299.764 139.573C281.004 147.571 263.824 146.682 243.385 145.497C262.046 142.041 279.819 141.054 288.903 131.871C289.792 130.983 289.101 129.403 287.718 129.699C282.288 130.884 240.719 137.006 232.721 137.401C238.053 134.636 243.484 132.069 249.309 130.193C290.582 116.369 267.181 112.815 235.486 127.033C240.225 123.577 249.013 119.727 251.778 116.468C258.492 108.767 241.015 107.779 224.625 124.466C228.574 118.443 230.944 114.197 237.066 110.149C239.732 108.47 241.213 107.187 242.595 104.225C245.261 98.3004 230.746 98.1029 220.28 114.987C220.28 114.493 220.576 114 220.478 113.605C231.339 94.2521 250.297 81.9098 272.71 82.3048L272.71 82.0086ZM173.873 15.6566C189.671 -9.91656 256.418 30.1711 258.492 74.9982C258.294 75.5906 258.294 76.0843 258.393 76.7754C239.633 81.0212 221.268 98.2016 216.034 109.853C215.936 109.063 215.837 108.47 215.343 108.174C218.404 98.2016 221.959 88.4266 225.81 78.6515C227.192 75.0969 222.354 73.5171 221.366 76.2818C220.971 76.4792 218.108 78.849 215.541 82.1073C226.599 39.3537 208.333 46.2654 201.52 75.3931C200.434 70.555 199.348 65.7168 199.348 60.6811C199.348 54.0657 203.89 47.154 202.507 40.6373C201.52 36.0954 195.201 37.1815 194.707 41.4272C193.325 55.9417 188.98 53.3745 192.239 69.1726C189.671 63.2484 186.512 46.8578 186.413 45.5742C185.919 39.7487 189.178 38.0701 184.537 33.4294C183.846 32.7383 182.562 32.9358 181.97 33.6269C175.749 40.5386 178.909 48.7338 180.489 56.5341C178.909 55.2506 177.23 54.3619 175.552 53.2758C176.243 51.3998 173.281 34.6143 170.812 36.589C166.567 40.0449 167.752 44.4881 167.752 49.0301C165.382 48.0427 163.111 46.9565 160.642 46.2654C159.556 35.5029 168.64 24.3455 174.071 15.5578L173.873 15.6566ZM108.706 78.2566C111.57 66.408 106.336 58.5089 121.048 52.8808C130.626 49.2275 143.857 50.2149 153.731 51.7947C173.281 55.0531 181.476 67.0991 191.646 82.1073C201.619 96.7205 203.593 107.582 199.841 124.96C198.558 128.415 198.36 132.76 199.249 136.117C198.755 136.117 198.36 136.117 197.867 136.018C189.276 132.76 175.749 129.6 161.63 129.205C116.112 121.701 98.0425 122.689 108.805 78.1578L108.706 78.2566ZM151.756 234.559C125.097 229.523 134.082 211.553 123.714 200.001C122.036 198.125 119.172 197.236 117.296 195.261C87.8724 164.85 128.454 128.909 177.724 138.684C182.661 139.869 186.611 140.659 190.165 141.251C190.659 141.449 191.152 141.745 191.646 141.844C194.806 142.831 198.163 143.127 201.52 143.522C199.545 149.052 205.568 154.087 210.9 155.47C210.9 155.47 210.999 155.47 211.098 155.47C206.753 167.318 207.247 191.312 208.827 199.704C200.039 209.381 180.785 239.99 151.953 234.46L151.756 234.559ZM274.981 267.932C274.389 268.031 273.698 268.031 273.006 267.932C242.595 265.859 221.366 241.076 218.207 211.158C214.257 173.243 217.713 168.602 219.49 159.715C219.49 159.518 219.786 159.321 219.786 159.024C219.786 158.629 219.786 158.136 219.786 157.741C219.786 157.444 219.786 157.148 219.885 156.852C222.156 157.05 224.427 157.247 226.599 157.741C228.377 158.136 230.055 158.629 231.635 158.926C264.712 174.921 325.14 188.349 285.447 252.825C283.374 256.281 279.029 265.168 276.067 267.439C275.771 267.636 275.376 267.834 274.981 267.932Z" fill="#B8C4C1"/>
<path d="M319.611 149.348C320.796 147.768 319.216 145.102 317.241 145.695C301.344 150.533 310.132 161.888 319.611 149.348Z" fill="#B8C4C1"/>
<path d="M226.303 180.253C214.06 186.474 218.404 205.629 230.648 185.881C233.412 181.339 229.463 178.673 226.303 180.253Z" fill="#B8C4C1"/>
<path d="M231.635 205.53C232.425 201.976 234.202 198.618 230.845 195.953C225.02 191.411 218.997 224.29 228.179 216.49C231.931 213.33 230.648 209.973 231.635 205.53Z" fill="#B8C4C1"/>
<path d="M152.348 178.377C149.386 172.157 141.191 183.314 137.241 188.448C130.231 197.631 135.168 204.839 137.636 201.778C142.376 196.051 145.733 189.337 151.361 184.4C154.126 182.03 153.336 180.549 152.25 178.278L152.348 178.377Z" fill="#B8C4C1"/>
<path d="M144.548 163.467C145.141 162.085 144.054 160.308 142.672 160.012C136.353 158.432 119.666 183.807 125.887 191.805C127.071 193.286 129.244 192.2 129.441 190.62C130.725 180.253 140.599 172.453 144.548 163.566L144.548 163.467Z" fill="#B8C4C1"/>
<path d="M146.622 202.074C143.166 205.925 138.723 208.196 136.452 213.034C135.662 214.614 136.847 216.49 138.624 216.095C157.779 212.837 162.913 184.005 146.622 202.074Z" fill="#B8C4C1"/>
<path d="M141.882 106.891C144.548 104.422 141.191 99.3865 137.933 100.966C132.107 103.731 125.59 108.47 114.729 106.397C109.002 105.311 114.137 113.704 127.664 113.111C132.996 112.914 138.031 110.445 141.882 106.891Z" fill="#B8C4C1"/>
<path d="M155.706 112.519C146.325 115.185 136.452 116.37 126.677 116.172C124.998 116.172 123.813 118.048 124.998 119.431C130.429 125.552 150.769 123.38 158.766 119.826C162.913 118.048 159.951 111.334 155.706 112.618L155.706 112.519Z" fill="#B8C4C1"/>
<path d="M180.291 118.245C179.896 116.073 176.835 114.789 175.058 116.073C172.688 117.752 167.554 120.516 164.592 120.714C163.21 120.812 162.321 122.392 163.111 123.478C166.962 129.205 181.97 126.342 180.291 118.146L180.291 118.245Z" fill="#B8C4C1"/>
<path d="M123.418 92.4748C120.357 93.9558 117.099 94.8445 114.828 97.4117C112.458 100.078 116.013 105.212 126.479 100.868C131.811 98.6953 128.552 90.0063 123.418 92.4748Z" fill="#B8C4C1"/>
<path d="M236.77 172.453C239.139 169.885 238.646 165.738 240.127 164.06C242.793 161.098 246.15 163.072 247.631 158.037C249.704 151.125 242.595 138.783 237.954 133.846C229.66 124.959 234.104 132.957 225.217 121.701C221.07 115.382 213.862 111.63 205.864 114.987C193.917 120.121 180.982 125.947 189.573 139.968C192.14 144.115 193.325 142.732 196.089 146.287C196.978 147.472 197.768 151.323 198.064 152.014C202.705 163.369 227.291 182.721 236.77 172.453Z" fill="#F5F2EB"/>
<path d="M226.204 139.672C223.736 134.834 213.862 125.947 208.53 130.094C201.816 135.229 210.308 138.487 212.085 142.831C218.898 159.913 231.24 149.644 226.303 139.672L226.204 139.672Z" fill="#B8C4C1"/>
</g>
</g>
<defs>
<clipPath id="clip0_148_34399">
<rect width="356.247" height="273.899" fill="white" transform="translate(342.123 274.548) rotate(180)"/>
</clipPath>
</defs>
</svg>
